P1
2 2
00
10